<?xml version="1.0" encoding="utf-8"?>
<!-- Generator: Adobe Illustrator 17.1.0, SVG Export Plug-In . SVG Version: 6.00 Build 0)  -->
<!DOCTYPE svg PUBLIC "-//W3C//DTD SVG 1.1//EN" "http://www.w3.org/Graphics/SVG/1.1/DTD/svg11.dtd">
<svg version="1.1" id="Layer_1" xmlns="http://www.w3.org/2000/svg" xmlns:xlink="http://www.w3.org/1999/xlink" x="0px" y="0px"
	 width="13px" height="13px" viewBox="0 0 13 13" enable-background="new 0 0 13 13" xml:space="preserve">
<g>
	<g>
		<line x1="7.387" y1="2.553" x2="7.387" y2="3.436"/>
		<path fill="#1D1D1B" d="M7.387,3.785c-0.193,0-0.35-0.156-0.35-0.35V2.553c0-0.193,0.156-0.35,0.35-0.35s0.35,0.156,0.35,0.35
			v0.882C7.737,3.628,7.58,3.785,7.387,3.785z"/>
	</g>
	<g>
		<line x1="4.663" y1="3.681" x2="5.287" y2="4.305"/>
		<path fill="#1D1D1B" d="M5.286,4.655c-0.09,0-0.179-0.034-0.247-0.103L4.415,3.928c-0.137-0.137-0.137-0.357,0-0.494
			s0.357-0.137,0.494,0l0.624,0.624c0.137,0.137,0.137,0.357,0,0.494C5.465,4.621,5.376,4.655,5.286,4.655z"/>
	</g>
	<g>
		<line x1="10.356" y1="6.405" x2="11.239" y2="6.405"/>
		<path fill="#1D1D1B" d="M11.239,6.754h-0.883c-0.193,0-0.35-0.156-0.35-0.35s0.156-0.35,0.35-0.35h0.883
			c0.193,0,0.35,0.156,0.35,0.35S11.432,6.754,11.239,6.754z"/>
	</g>
	<g>
		<line x1="9.486" y1="4.305" x2="10.11" y2="3.681"/>
		<path fill="#1D1D1B" d="M9.487,4.655c-0.09,0-0.179-0.034-0.247-0.103c-0.137-0.137-0.137-0.357,0-0.494l0.624-0.624
			c0.137-0.137,0.357-0.137,0.494,0s0.137,0.357,0,0.494L9.734,4.552C9.665,4.621,9.576,4.655,9.487,4.655z"/>
	</g>
	<g>
		<path fill="#1D1D1B" d="M7.977,10.796H3.302c-1.042,0-1.891-0.848-1.891-1.891c0-0.937,0.685-1.716,1.58-1.864
			c0.097-1.226,1.125-2.193,2.375-2.193c1.021,0,1.911,0.647,2.243,1.585c1.346-0.249,2.566,0.831,2.566,2.165
			C10.176,9.81,9.19,10.796,7.977,10.796z M3.341,7.719c-0.698,0-1.229,0.532-1.229,1.187c0,0.656,0.534,1.191,1.19,1.191h4.674
			c0.827,0,1.5-0.673,1.5-1.499s-0.673-1.499-1.5-1.499c-0.159,0-0.322,0.03-0.498,0.093L7.092,7.329L7.018,6.925
			C6.871,6.127,6.177,5.547,5.366,5.547c-0.928,0-1.682,0.755-1.682,1.683l0.027,0.375L3.348,7.719
			C3.346,7.719,3.344,7.719,3.341,7.719z"/>
	</g>
	<g>
		<path fill="#1D1D1B" d="M9.202,7.633L8.845,7.379C8.453,7.103,7.996,7.008,7.479,7.192L7.093,7.329L7.019,6.925
			C6.906,6.316,6.467,5.821,5.872,5.632L5.391,5.479l0.313-0.397C6.116,4.557,6.73,4.257,7.387,4.257
			c1.185,0,2.147,0.963,2.147,2.147c0,0.283-0.055,0.561-0.164,0.823L9.202,7.633z M7.977,6.4c0.293,0,0.58,0.059,0.849,0.172
			c0.006-0.056,0.01-0.111,0.01-0.167c0-0.799-0.649-1.448-1.448-1.448c-0.284,0-0.557,0.085-0.79,0.24
			c0.47,0.282,0.828,0.719,1.012,1.236C7.733,6.411,7.855,6.4,7.977,6.4z"/>
	</g>
</g>
</svg>
